<svg id="svg" version="1.1" xmlns="http://www.w3.org/2000/svg" xmlns:xlink="http://www.w3.org/1999/xlink" width="400" height="400" viewBox="0, 0, 400,400"><g id="svgg"><path id="path0" d="M55.917 216.902 C 56.329 216.981,57.004 216.981,57.417 216.902 C 57.829 216.822,57.492 216.757,56.667 216.757 C 55.842 216.757,55.504 216.822,55.917 216.902 M203.934 228.915 C 205.823 228.975,208.823 228.975,210.601 228.915 C 212.379 228.855,210.833 228.806,207.167 228.807 C 203.500 228.807,202.045 228.856,203.934 228.915 M193.000 229.559 C 192.358 229.625,189.658 229.979,187.000 230.346 C 184.342 230.714,181.567 231.097,180.833 231.198 C 178.937 231.460,169.867 233.355,169.697 233.525 C 169.448 233.774,169.987 233.686,174.789 232.687 C 177.380 232.148,180.250 231.612,181.167 231.495 C 182.083 231.378,184.183 231.078,185.833 230.829 C 187.483 230.579,190.483 230.215,192.500 230.019 C 198.024 229.482,198.336 229.433,196.167 229.437 C 195.067 229.438,193.642 229.494,193.000 229.559 M220.000 229.806 C 222.108 230.053,225.258 230.504,227.000 230.807 C 228.742 231.110,230.617 231.433,231.167 231.526 C 231.717 231.618,232.692 231.837,233.333 232.012 C 233.975 232.187,234.875 232.319,235.333 232.305 C 236.197 232.279,233.587 231.645,229.333 230.847 C 225.857 230.194,221.763 229.658,219.201 229.519 L 216.167 229.355 220.000 229.806 M164.667 234.667 C 163.997 234.881,163.964 234.935,164.500 234.943 C 164.867 234.949,165.467 234.824,165.833 234.667 C 166.683 234.302,165.806 234.302,164.667 234.667 M290.000 242.734 C 283.423 243.077,276.430 243.629,271.513 244.193 C 269.137 244.466,266.587 244.747,265.847 244.816 C 265.106 244.886,262.175 245.257,259.333 245.641 C 256.492 246.024,252.967 246.500,251.500 246.699 C 250.033 246.897,241.858 248.334,233.333 249.893 C 224.808 251.451,214.908 253.228,211.333 253.841 C 207.758 254.454,204.383 255.035,203.833 255.133 C 200.697 255.689,187.589 257.441,179.729 258.354 L 170.625 259.411 164.896 258.012 C 150.710 254.549,136.437 251.450,125.783 249.521 C 120.964 248.648,117.416 248.371,121.167 249.160 C 123.775 249.709,122.965 249.778,119.898 249.268 C 118.090 248.967,117.705 248.818,118.333 248.660 C 119.133 248.460,119.123 248.445,118.101 248.286 C 117.515 248.195,117.111 248.243,117.204 248.394 C 117.297 248.544,117.055 248.667,116.667 248.667 C 116.218 248.667,116.047 248.526,116.198 248.282 C 116.347 248.041,116.290 247.988,116.046 248.138 C 115.575 248.429,111.948 248.020,112.147 247.698 C 112.224 247.574,111.752 247.535,111.098 247.611 C 110.395 247.693,109.989 247.620,110.105 247.432 C 110.223 247.241,109.609 247.157,108.568 247.222 C 107.322 247.300,107.021 247.244,107.500 247.025 C 107.964 246.813,107.608 246.764,106.333 246.866 C 105.030 246.970,104.693 246.922,105.167 246.699 C 105.643 246.476,105.311 246.425,104.000 246.522 C 102.817 246.609,102.461 246.565,102.998 246.397 C 103.544 246.227,102.929 246.143,101.205 246.152 L 98.581 246.167 101.707 247.627 C 106.307 249.776,111.615 251.842,126.667 257.343 C 152.700 266.856,156.267 268.285,172.000 275.500 C 193.554 285.384,210.962 291.637,237.333 298.965 C 262.712 306.017,275.302 308.277,298.833 310.003 C 310.297 310.844,313.468 311.127,323.000 312.157 C 327.125 312.603,332.675 313.162,335.333 313.400 C 341.834 313.983,374.569 313.987,381.500 313.406 C 391.823 312.542,397.867 311.990,398.917 311.816 L 400.000 311.636 400.000 282.174 C 400.000 254.403,399.967 252.702,399.417 252.538 C 396.047 251.533,372.114 247.567,364.000 246.669 C 362.258 246.476,360.158 246.244,359.333 246.153 C 358.508 246.062,356.708 245.840,355.333 245.661 C 341.456 243.852,302.260 242.096,290.000 242.734 M43.595 242.913 C 44.563 242.980,46.063 242.980,46.928 242.911 C 47.793 242.843,47.000 242.788,45.167 242.788 C 43.333 242.789,42.626 242.845,43.595 242.913 M61.417 242.913 C 62.471 242.979,64.196 242.979,65.250 242.913 C 66.304 242.847,65.442 242.793,63.333 242.793 C 61.225 242.793,60.362 242.847,61.417 242.913 M36.750 243.239 C 37.254 243.315,38.079 243.315,38.583 243.239 C 39.087 243.162,38.675 243.100,37.667 243.100 C 36.658 243.100,36.246 243.162,36.750 243.239 M70.923 243.242 C 71.522 243.316,72.422 243.314,72.923 243.238 C 73.424 243.162,72.933 243.101,71.833 243.103 C 70.733 243.105,70.324 243.167,70.923 243.242 M32.254 243.569 C 32.669 243.649,33.269 243.646,33.587 243.562 C 33.906 243.479,33.567 243.414,32.833 243.417 C 32.100 243.421,31.839 243.489,32.254 243.569 M28.417 243.896 C 28.738 243.980,29.262 243.980,29.583 243.896 C 29.904 243.813,29.642 243.744,29.000 243.744 C 28.358 243.744,28.096 243.813,28.417 243.896 M25.083 244.230 C 25.404 244.314,25.929 244.314,26.250 244.230 C 26.571 244.146,26.308 244.077,25.667 244.077 C 25.025 244.077,24.762 244.146,25.083 244.230 M134.667 251.667 C 135.787 252.025,134.577 252.025,133.167 251.667 C 132.268 251.438,132.251 251.412,133.000 251.406 C 133.458 251.403,134.208 251.520,134.667 251.667 M141.833 253.159 C 142.750 253.395,143.200 253.591,142.833 253.595 C 142.467 253.599,141.417 253.410,140.500 253.174 C 139.583 252.939,139.133 252.742,139.500 252.738 C 139.867 252.734,140.917 252.923,141.833 253.159 M145.667 254.000 C 146.327 254.211,146.361 254.267,145.833 254.267 C 145.467 254.267,144.792 254.147,144.333 254.000 C 143.673 253.789,143.639 253.733,144.167 253.733 C 144.533 253.733,145.208 253.853,145.667 254.000 M154.667 256.000 C 155.327 256.211,155.361 256.267,154.833 256.267 C 154.467 256.267,153.792 256.147,153.333 256.000 C 152.673 255.789,152.639 255.733,153.167 255.733 C 153.533 255.733,154.208 255.853,154.667 256.000 M161.500 257.644 C 162.783 257.990,163.608 258.283,163.333 258.296 C 163.058 258.308,161.783 258.035,160.500 257.689 C 159.217 257.343,158.392 257.050,158.667 257.038 C 158.942 257.025,160.217 257.298,161.500 257.644 M5.333 269.515 C 4.325 269.797,2.713 270.389,1.750 270.829 L 0.000 271.630 0.000 302.148 L 0.000 332.667 78.006 332.667 L 156.011 332.667 155.201 331.083 C 153.179 327.131,150.236 325.497,145.167 325.509 L 141.500 325.518 136.667 327.505 C 127.093 331.439,122.140 329.812,117.346 321.158 C 111.976 311.465,106.821 311.299,96.667 320.493 C 85.848 330.288,78.416 327.055,76.172 311.577 C 73.784 295.104,70.850 293.227,49.489 294.504 C 23.042 296.084,18.667 294.200,18.667 281.228 C 18.667 278.410,18.499 275.683,18.280 274.953 C 16.964 270.561,10.816 267.979,5.333 269.515 M374.083 304.902 C 373.671 304.981,372.996 304.981,372.583 304.902 C 372.171 304.822,372.508 304.757,373.333 304.757 C 374.158 304.757,374.496 304.822,374.083 304.902 M397.421 304.901 C 397.011 304.980,396.261 304.982,395.755 304.906 C 395.248 304.829,395.583 304.765,396.500 304.762 C 397.417 304.760,397.831 304.822,397.421 304.901 " stroke="none" fill="#83ae17" fill-rule="evenodd"></path><path id="path1" d="M7.637 217.990 C 6.156 219.400,5.482 221.449,5.019 225.956 C 4.638 229.674,4.637 229.676,3.440 228.370 C 2.923 227.805,1.938 227.113,1.250 226.833 L 0.000 226.324 0.000 237.368 L 0.000 248.411 0.750 248.208 C 17.851 243.582,53.933 241.354,77.672 243.457 C 78.569 243.537,78.790 243.505,78.224 243.378 L 77.281 243.167 78.254 242.596 C 81.750 240.545,82.858 231.140,79.948 228.230 C 78.773 227.055,76.610 227.090,74.958 228.312 C 73.884 229.106,73.333 228.983,73.333 227.948 C 73.333 224.357,69.191 223.815,65.106 226.873 C 63.734 227.899,63.667 227.883,63.667 226.516 C 63.667 217.865,56.620 213.710,51.521 219.354 C 50.348 220.652,49.885 221.492,48.553 224.736 L 48.046 225.972 46.994 225.447 C 45.744 224.823,44.171 225.003,42.288 225.985 C 40.609 226.860,40.668 226.880,40.659 225.417 C 40.623 219.173,32.910 218.776,27.512 224.741 L 25.749 226.690 24.958 225.096 C 23.430 222.018,20.978 221.953,18.141 224.914 L 16.667 226.453 16.667 225.445 C 16.667 219.424,11.026 214.766,7.637 217.990 M124.725 221.346 C 122.801 222.517,121.730 225.228,121.373 229.833 L 121.167 232.500 120.133 232.397 C 116.291 232.013,113.648 240.886,116.062 246.065 C 116.653 247.335,116.818 248.005,116.561 248.091 C 116.083 248.250,118.208 248.448,120.718 248.478 C 121.755 248.490,122.542 248.599,122.467 248.720 C 122.287 249.011,124.884 249.445,125.293 249.192 C 125.467 249.084,125.660 249.136,125.722 249.308 C 125.783 249.480,126.583 249.668,127.500 249.727 C 128.417 249.785,129.242 249.920,129.333 250.026 C 129.621 250.360,138.656 252.046,139.003 251.831 C 139.185 251.719,139.333 251.756,139.333 251.914 C 139.333 252.247,143.315 253.130,143.588 252.857 C 143.689 252.755,143.936 252.802,144.136 252.959 C 144.678 253.386,147.919 254.090,148.289 253.861 C 148.465 253.752,148.660 253.814,148.722 253.998 C 148.783 254.183,149.434 254.371,150.167 254.417 C 150.900 254.463,151.575 254.593,151.667 254.706 C 151.934 255.036,157.993 256.377,158.316 256.177 C 158.478 256.077,158.660 256.127,158.722 256.287 C 158.865 256.661,164.961 258.063,165.363 257.815 C 165.530 257.712,165.667 257.804,165.667 258.019 C 165.667 258.247,165.946 258.338,166.333 258.237 C 166.700 258.141,167.000 258.174,167.000 258.311 C 167.000 259.703,173.884 259.271,193.500 256.649 C 196.250 256.281,198.725 255.896,199.000 255.793 C 199.275 255.691,200.250 255.544,201.167 255.467 C 202.828 255.328,204.167 255.112,204.167 254.983 C 204.167 254.946,204.467 254.869,204.833 254.813 C 205.200 254.758,206.100 254.612,206.833 254.489 C 209.078 254.113,210.134 253.983,210.900 253.986 C 211.304 253.988,211.725 253.842,211.837 253.660 C 211.949 253.479,212.390 253.419,212.817 253.526 C 213.244 253.633,213.698 253.552,213.825 253.347 C 213.952 253.141,214.331 253.060,214.667 253.167 C 215.002 253.273,215.377 253.198,215.500 253.000 C 215.623 252.802,216.009 252.730,216.358 252.841 C 216.708 252.952,217.175 252.931,217.397 252.794 C 217.618 252.657,218.107 252.510,218.483 252.467 C 218.859 252.425,219.617 252.303,220.167 252.197 C 220.717 252.091,221.617 251.937,222.167 251.854 C 222.717 251.772,223.542 251.620,224.000 251.516 C 225.579 251.157,227.654 250.755,229.333 250.481 C 229.975 250.377,230.875 250.219,231.333 250.129 C 231.792 250.040,232.542 249.919,233.000 249.860 C 233.458 249.801,233.833 249.714,233.833 249.667 C 233.833 249.585,235.251 249.384,236.333 249.311 C 236.608 249.292,237.058 249.189,237.333 249.081 C 237.806 248.896,238.889 248.719,240.000 248.644 C 240.275 248.626,240.725 248.529,241.000 248.429 C 241.275 248.329,241.800 248.205,242.167 248.153 C 244.077 247.883,245.249 247.685,246.000 247.507 C 246.458 247.399,247.246 247.242,247.751 247.159 C 248.255 247.076,249.155 246.928,249.751 246.830 C 252.484 246.380,253.548 246.249,254.167 246.285 C 254.533 246.307,257.008 246.007,259.667 245.619 C 262.325 245.231,264.913 244.908,265.418 244.901 C 266.116 244.892,265.433 244.411,262.585 242.906 C 257.320 240.123,250.341 236.956,249.975 237.182 C 249.805 237.287,249.667 237.235,249.667 237.066 C 249.667 236.546,240.486 233.199,239.957 233.526 C 239.797 233.625,239.667 233.563,239.667 233.389 C 239.667 232.895,237.987 232.595,237.498 233.002 C 237.194 233.254,236.993 233.258,236.843 233.016 C 236.725 232.824,236.824 232.664,237.064 232.662 C 237.389 232.658,237.377 232.579,237.016 232.350 C 236.749 232.182,236.139 232.122,235.660 232.218 C 235.181 232.314,234.199 232.235,233.478 232.044 C 232.757 231.853,231.717 231.620,231.167 231.528 C 230.617 231.435,228.865 231.134,227.273 230.858 C 225.682 230.582,223.357 230.246,222.107 230.111 C 220.210 229.906,219.999 229.827,220.833 229.630 C 221.388 229.500,220.868 229.463,219.667 229.549 C 218.475 229.633,216.600 229.552,215.500 229.369 C 213.525 229.039,213.534 229.037,216.167 229.217 C 217.633 229.318,218.727 229.291,218.597 229.158 C 218.467 229.025,213.324 228.917,207.167 228.917 C 201.010 228.917,195.866 229.025,195.736 229.158 C 195.606 229.291,196.700 229.318,198.167 229.217 C 200.801 229.037,200.809 229.039,198.833 229.369 C 197.733 229.553,195.708 229.635,194.333 229.552 C 192.958 229.468,192.358 229.503,193.000 229.628 C 194.009 229.825,193.829 229.889,191.667 230.103 C 188.631 230.403,182.403 231.293,181.542 231.551 C 181.198 231.654,180.999 231.604,181.101 231.440 C 181.202 231.276,180.884 231.119,180.393 231.093 C 179.658 231.052,179.614 231.089,180.149 231.299 C 180.768 231.543,180.765 231.563,180.066 231.746 C 179.663 231.851,179.250 231.801,179.147 231.635 C 179.045 231.469,178.707 231.344,178.397 231.357 C 177.910 231.377,177.917 231.413,178.450 231.623 C 179.264 231.943,173.079 233.123,172.163 232.822 C 171.721 232.677,171.640 232.705,171.920 232.907 C 172.204 233.112,171.557 233.393,169.920 233.776 C 166.785 234.509,166.213 234.441,169.000 233.667 L 171.167 233.064 169.333 233.034 C 167.494 233.004,164.451 234.279,166.167 234.361 C 166.533 234.379,166.083 234.602,165.167 234.857 C 163.081 235.437,162.377 235.414,164.167 234.824 C 164.996 234.551,165.235 234.375,164.798 234.359 C 164.182 234.336,164.072 234.072,163.898 232.204 C 163.354 226.386,161.057 223.335,157.217 223.334 C 153.078 223.333,151.765 225.343,151.368 232.288 L 151.146 236.167 150.369 234.581 C 148.809 231.401,146.858 230.601,144.884 232.333 C 143.430 233.610,143.521 233.639,142.493 231.583 C 139.914 226.431,136.473 225.959,133.645 230.368 L 132.500 232.154 132.253 229.660 C 131.576 222.839,128.272 219.190,124.725 221.346 M186.417 230.230 C 186.737 230.314,187.262 230.314,187.583 230.230 C 187.904 230.146,187.642 230.077,187.000 230.077 C 186.358 230.077,186.096 230.146,186.417 230.230 M184.083 230.563 C 184.404 230.647,184.929 230.647,185.250 230.563 C 185.571 230.479,185.308 230.411,184.667 230.411 C 184.025 230.411,183.762 230.479,184.083 230.563 M227.333 230.462 C 227.333 230.533,227.775 230.656,228.316 230.735 C 228.856 230.814,229.222 230.757,229.129 230.606 C 228.964 230.339,227.333 230.208,227.333 230.462 M160.833 236.000 C 160.467 236.158,159.942 236.286,159.667 236.286 C 159.352 236.286,159.413 236.181,159.833 236.000 C 160.200 235.842,160.725 235.714,161.000 235.714 C 161.315 235.714,161.254 235.819,160.833 236.000 M157.167 237.000 C 156.800 237.158,156.275 237.286,156.000 237.286 C 155.685 237.286,155.746 237.181,156.167 237.000 C 156.533 236.842,157.058 236.714,157.333 236.714 C 157.648 236.714,157.587 236.819,157.167 237.000 M153.833 238.000 C 153.467 238.158,152.942 238.286,152.667 238.286 C 152.352 238.286,152.413 238.181,152.833 238.000 C 153.200 237.842,153.725 237.714,154.000 237.714 C 154.315 237.714,154.254 237.819,153.833 238.000 M151.500 238.667 C 151.133 238.824,150.608 238.953,150.333 238.953 C 150.018 238.953,150.080 238.847,150.500 238.667 C 150.867 238.509,151.392 238.380,151.667 238.380 C 151.982 238.380,151.920 238.486,151.500 238.667 M142.023 241.687 C 138.827 242.770,136.155 243.599,136.085 243.530 C 135.920 243.364,146.678 239.719,147.333 239.719 C 147.608 239.718,145.219 240.604,142.023 241.687 M331.250 240.583 C 331.387 240.629,331.478 241.324,331.451 242.128 C 331.403 243.564,331.424 243.594,332.618 243.792 C 334.000 244.020,336.472 244.002,335.583 243.770 C 334.934 243.600,334.713 240.818,335.333 240.611 C 335.517 240.550,334.617 240.500,333.333 240.500 C 332.050 240.500,331.112 240.537,331.250 240.583 M345.732 240.707 C 345.916 240.821,346.014 241.757,345.950 242.787 C 345.820 244.879,345.934 245.000,348.027 245.000 L 349.333 245.000 349.333 242.861 C 349.333 241.685,349.483 240.672,349.667 240.611 C 349.850 240.550,348.964 240.500,347.698 240.500 C 346.433 240.500,345.548 240.593,345.732 240.707 M360.057 240.702 C 360.247 240.819,360.340 242.061,360.277 243.620 C 360.183 245.940,360.245 246.335,360.703 246.334 C 360.999 246.334,361.974 246.410,362.870 246.503 C 363.767 246.596,364.313 246.584,364.083 246.475 C 363.575 246.234,363.494 240.781,363.996 240.611 C 364.177 240.550,363.290 240.499,362.026 240.499 C 360.761 240.498,359.875 240.589,360.057 240.702 M285.923 242.908 C 286.522 242.982,287.422 242.981,287.923 242.905 C 288.424 242.829,287.933 242.768,286.833 242.770 C 285.733 242.772,285.324 242.834,285.923 242.908 M312.417 242.912 C 313.287 242.980,314.712 242.980,315.583 242.912 C 316.454 242.843,315.742 242.787,314.000 242.787 C 312.258 242.787,311.546 242.843,312.417 242.912 M280.750 243.230 C 281.071 243.314,281.596 243.314,281.917 243.230 C 282.237 243.146,281.975 243.077,281.333 243.077 C 280.692 243.077,280.429 243.146,280.750 243.230 M321.917 243.241 C 322.512 243.315,323.487 243.315,324.083 243.241 C 324.679 243.167,324.192 243.107,323.000 243.107 C 321.808 243.107,321.321 243.167,321.917 243.241 M276.750 243.563 C 277.071 243.647,277.596 243.647,277.917 243.563 C 278.237 243.479,277.975 243.411,277.333 243.411 C 276.692 243.411,276.429 243.479,276.750 243.563 M328.755 243.573 C 329.261 243.649,330.011 243.647,330.421 243.568 C 330.831 243.489,330.417 243.426,329.500 243.429 C 328.583 243.431,328.248 243.496,328.755 243.573 M338.921 244.236 C 339.335 244.315,339.935 244.312,340.254 244.229 C 340.573 244.146,340.233 244.080,339.500 244.084 C 338.767 244.088,338.506 244.156,338.921 244.236 M133.667 244.469 C 133.667 244.671,130.575 245.686,130.423 245.534 C 130.351 245.462,130.939 245.174,131.729 244.894 C 133.287 244.343,133.667 244.260,133.667 244.469 M343.083 244.563 C 343.404 244.647,343.929 244.647,344.250 244.563 C 344.571 244.479,344.308 244.411,343.667 244.411 C 343.025 244.411,342.762 244.479,343.083 244.563 M391.000 247.774 L 391.000 250.882 393.064 251.266 C 394.199 251.477,395.199 251.579,395.286 251.492 C 395.373 251.405,395.194 251.333,394.889 251.333 C 394.407 251.333,394.333 250.889,394.333 248.000 L 394.333 244.667 392.667 244.667 L 391.000 244.667 391.000 247.774 M356.917 245.902 C 357.329 245.981,358.004 245.981,358.417 245.902 C 358.829 245.822,358.492 245.757,357.667 245.757 C 356.842 245.757,356.504 245.822,356.917 245.902 M128.667 246.303 C 128.392 246.459,127.792 246.678,127.333 246.790 C 126.639 246.959,126.666 246.913,127.500 246.512 C 128.568 245.997,129.503 245.830,128.667 246.303 M125.000 247.636 C 124.725 247.792,124.125 248.011,123.667 248.123 C 122.972 248.293,123.000 248.247,123.833 247.845 C 124.902 247.331,125.836 247.163,125.000 247.636 M209.798 380.167 C 209.799 382.733,209.851 383.739,209.914 382.402 C 209.978 381.065,209.977 378.965,209.914 377.735 C 209.850 376.506,209.798 377.600,209.798 380.167 " stroke="none" fill="#5c7b14" fill-rule="evenodd"></path><path id="path2" d="M326.100 234.000 C 326.100 235.008,326.162 235.421,326.239 234.917 C 326.315 234.412,326.315 233.588,326.239 233.083 C 326.162 232.579,326.100 232.992,326.100 234.000 M369.417 234.167 C 369.421 234.900,369.489 235.161,369.569 234.746 C 369.649 234.331,369.646 233.731,369.562 233.413 C 369.479 233.094,369.414 233.433,369.417 234.167 M385.411 238.333 C 385.411 238.975,385.479 239.237,385.563 238.917 C 385.647 238.596,385.647 238.071,385.563 237.750 C 385.479 237.429,385.411 237.692,385.411 238.333 M298.083 242.582 C 300.054 242.641,303.279 242.641,305.250 242.582 C 307.221 242.523,305.608 242.475,301.667 242.475 C 297.725 242.475,296.112 242.523,298.083 242.582 M45.667 242.867 C 30.257 243.481,16.195 245.120,3.667 247.762 L 0.167 248.500 0.079 260.067 L -0.009 271.634 1.746 270.831 C 7.761 268.078,13.621 268.671,16.771 272.351 C 18.377 274.227,18.667 275.583,18.667 281.228 C 18.667 294.200,23.042 296.084,49.489 294.504 C 70.850 293.227,73.784 295.104,76.172 311.577 C 78.416 327.055,85.848 330.288,96.667 320.493 C 102.079 315.593,105.004 314.032,108.811 314.011 C 112.624 313.990,114.024 315.162,117.346 321.158 C 122.140 329.812,127.093 331.439,136.667 327.505 L 141.500 325.518 145.167 325.509 C 150.236 325.497,153.179 327.131,155.201 331.083 L 156.011 332.665 77.922 332.750 C 34.973 332.797,89.871 332.872,199.917 332.917 L 400.000 333.000 400.000 322.318 L 400.000 311.636 398.917 311.816 C 397.867 311.990,391.823 312.542,381.500 313.406 C 374.569 313.987,341.834 313.983,335.333 313.400 C 332.675 313.162,327.125 312.603,323.000 312.157 C 313.468 311.127,310.297 310.844,298.833 310.003 C 275.302 308.277,262.712 306.017,237.333 298.965 C 210.962 291.637,193.554 285.384,172.000 275.500 C 156.395 268.344,152.266 266.687,127.883 257.795 C 110.240 251.361,98.305 246.584,98.753 246.136 C 98.814 246.075,100.882 246.307,103.348 246.652 C 105.815 246.996,108.658 247.380,109.667 247.504 C 110.675 247.628,112.700 247.941,114.167 248.198 C 117.037 248.701,117.529 248.751,117.292 248.514 C 117.110 248.332,112.263 247.479,109.667 247.172 C 108.658 247.052,106.408 246.748,104.667 246.494 C 86.336 243.830,60.843 242.263,45.667 242.867 M119.667 249.191 C 120.858 249.435,122.133 249.625,122.500 249.611 C 122.867 249.598,122.192 249.387,121.000 249.142 C 119.808 248.898,118.533 248.709,118.167 248.722 C 117.800 248.735,118.475 248.946,119.667 249.191 M133.167 251.667 C 134.577 252.025,135.787 252.025,134.667 251.667 C 134.208 251.520,133.458 251.403,133.000 251.406 C 132.251 251.412,132.268 251.438,133.167 251.667 M140.500 253.174 C 141.417 253.410,142.467 253.599,142.833 253.595 C 143.200 253.591,142.750 253.395,141.833 253.159 C 140.917 252.923,139.867 252.734,139.500 252.738 C 139.133 252.742,139.583 252.939,140.500 253.174 M144.333 254.000 C 144.792 254.147,145.467 254.267,145.833 254.267 C 146.361 254.267,146.327 254.211,145.667 254.000 C 145.208 253.853,144.533 253.733,144.167 253.733 C 143.639 253.733,143.673 253.789,144.333 254.000 M153.333 256.000 C 153.792 256.147,154.467 256.267,154.833 256.267 C 155.361 256.267,155.327 256.211,154.667 256.000 C 154.208 255.853,153.533 255.733,153.167 255.733 C 152.639 255.733,152.673 255.789,153.333 256.000 M160.500 257.689 C 161.783 258.035,163.058 258.308,163.333 258.296 C 163.608 258.283,162.783 257.990,161.500 257.644 C 160.217 257.298,158.942 257.025,158.667 257.038 C 158.392 257.050,159.217 257.343,160.500 257.689 M372.583 304.902 C 372.996 304.981,373.671 304.981,374.083 304.902 C 374.496 304.822,374.158 304.757,373.333 304.757 C 372.508 304.757,372.171 304.822,372.583 304.902 M395.755 304.906 C 396.261 304.982,397.011 304.980,397.421 304.901 C 397.831 304.822,397.417 304.760,396.500 304.762 C 395.583 304.765,395.248 304.829,395.755 304.906 M148.256 375.908 C 148.855 375.982,149.755 375.981,150.256 375.905 C 150.757 375.829,150.267 375.768,149.167 375.770 C 148.067 375.772,147.657 375.834,148.256 375.908 M190.750 375.896 C 191.071 375.980,191.596 375.980,191.917 375.896 C 192.237 375.813,191.975 375.744,191.333 375.744 C 190.692 375.744,190.429 375.813,190.750 375.896 M205.333 377.794 C 205.333 377.865,205.708 377.994,206.167 378.082 C 206.625 378.169,207.000 378.112,207.000 377.954 C 207.000 377.796,206.625 377.667,206.167 377.667 C 205.708 377.667,205.333 377.724,205.333 377.794 M256.077 380.333 C 256.077 380.975,256.146 381.238,256.230 380.917 C 256.314 380.596,256.314 380.071,256.230 379.750 C 256.146 379.429,256.077 379.692,256.077 380.333 " stroke="none" fill="#94c41c" fill-rule="evenodd"></path><path id="path3" d="M156.417 223.230 C 156.737 223.314,157.262 223.314,157.583 223.230 C 157.904 223.146,157.642 223.077,157.000 223.077 C 156.358 223.077,156.096 223.146,156.417 223.230 M4.744 227.000 C 4.744 227.642,4.813 227.904,4.896 227.583 C 4.980 227.262,4.980 226.737,4.896 226.417 C 4.813 226.096,4.744 226.358,4.744 227.000 M63.667 226.833 C 63.667 227.292,63.796 227.667,63.954 227.667 C 64.112 227.667,64.169 227.292,64.082 226.833 C 63.994 226.375,63.865 226.000,63.794 226.000 C 63.724 226.000,63.667 226.375,63.667 226.833 M120.995 230.734 C 120.906 231.780,120.955 232.513,121.103 232.364 C 121.252 232.215,121.325 231.360,121.265 230.463 L 121.156 228.833 120.995 230.734 M194.083 229.230 C 194.404 229.314,194.929 229.314,195.250 229.230 C 195.571 229.146,195.308 229.077,194.667 229.077 C 194.025 229.077,193.762 229.146,194.083 229.230 M81.762 234.167 C 81.765 235.083,81.829 235.419,81.906 234.912 C 81.982 234.405,81.980 233.655,81.901 233.245 C 81.822 232.835,81.760 233.250,81.762 234.167 M345.727 242.392 C 345.679 243.883,345.543 244.317,345.083 244.437 C 344.537 244.580,344.537 244.592,345.094 244.628 C 345.875 244.679,346.067 244.093,345.913 242.124 L 345.787 240.500 345.727 242.392 M349.379 242.750 C 349.354 243.987,349.447 245.000,349.586 245.000 C 349.725 245.000,349.793 244.287,349.738 243.417 C 349.566 240.678,349.426 240.418,349.379 242.750 M363.785 243.500 C 363.784 245.150,363.840 245.867,363.910 245.093 C 363.980 244.320,363.981 242.970,363.912 242.093 C 363.843 241.217,363.786 241.850,363.785 243.500 M360.114 243.500 C 360.115 244.967,360.174 245.525,360.244 244.741 C 360.315 243.957,360.314 242.757,360.242 242.075 C 360.171 241.392,360.113 242.033,360.114 243.500 M290.750 242.576 C 291.438 242.648,292.563 242.648,293.250 242.576 C 293.938 242.504,293.375 242.445,292.000 242.445 C 290.625 242.445,290.063 242.504,290.750 242.576 M283.417 242.896 C 283.737 242.980,284.262 242.980,284.583 242.896 C 284.904 242.813,284.642 242.744,284.000 242.744 C 283.358 242.744,283.096 242.813,283.417 242.896 M317.755 242.906 C 318.261 242.982,319.011 242.980,319.421 242.901 C 319.831 242.822,319.417 242.760,318.500 242.762 C 317.583 242.765,317.248 242.829,317.755 242.906 M325.587 243.236 C 326.002 243.315,326.602 243.312,326.921 243.229 C 327.239 243.146,326.900 243.080,326.167 243.084 C 325.433 243.088,325.173 243.156,325.587 243.236 M336.417 243.896 C 336.737 243.980,337.262 243.980,337.583 243.896 C 337.904 243.813,337.642 243.744,337.000 243.744 C 336.358 243.744,336.096 243.813,336.417 243.896 M394.387 248.083 C 394.442 251.638,394.585 251.234,394.742 247.083 C 394.792 245.753,394.721 244.666,394.583 244.666 C 394.446 244.666,394.357 246.204,394.387 248.083 M234.000 373.634 C 234.000 374.632,231.074 375.378,230.183 374.607 C 229.411 373.939,225.667 375.164,225.667 376.085 C 225.667 376.938,224.731 377.302,224.536 376.524 C 224.267 375.453,222.130 374.217,221.019 374.490 C 220.550 374.606,219.700 374.689,219.130 374.676 C 217.893 374.647,217.183 375.379,217.444 376.415 C 217.604 377.049,217.571 377.086,217.233 376.653 C 215.879 374.914,213.071 373.743,212.494 374.677 C 212.371 374.876,211.802 374.931,211.141 374.806 L 210.000 374.592 210.000 380.153 L 210.000 385.713 210.750 385.607 C 211.344 385.522,211.521 385.253,211.600 384.310 C 211.693 383.200,211.765 383.130,212.681 383.264 C 214.119 383.475,215.786 383.083,216.576 382.346 C 217.265 381.705,217.271 381.706,217.474 382.517 C 217.635 383.155,217.897 383.333,218.673 383.333 L 219.667 383.333 219.677 380.583 C 219.697 375.347,222.563 375.103,222.738 380.323 C 222.833 383.154,222.838 383.167,223.754 383.273 C 224.547 383.364,224.703 383.237,224.879 382.356 C 225.097 381.266,225.479 381.031,225.777 381.806 C 225.876 382.066,225.742 382.361,225.479 382.462 C 223.542 383.205,226.307 385.667,229.079 385.667 C 232.353 385.667,233.127 384.712,233.282 380.479 C 233.412 376.937,234.000 376.147,234.000 379.514 C 234.000 382.359,234.582 383.049,237.160 383.263 L 239.000 383.416 239.000 380.553 C 239.000 378.168,239.097 377.638,239.583 377.378 C 240.115 377.093,240.162 377.270,240.115 379.366 C 240.076 381.105,240.174 381.667,240.515 381.667 C 240.764 381.667,241.087 381.870,241.233 382.118 C 242.226 383.799,246.956 383.670,247.513 381.947 C 247.784 381.111,248.602 380.938,248.834 381.668 C 249.393 383.432,253.351 383.912,255.001 382.417 C 256.286 381.252,256.572 377.184,255.454 375.950 C 254.286 374.659,251.000 373.666,251.000 374.604 C 251.000 374.754,250.482 375.079,249.848 375.327 C 249.215 375.576,248.755 375.874,248.826 375.989 C 248.898 376.104,248.833 376.398,248.682 376.642 C 248.363 377.158,247.667 376.837,247.667 376.175 C 247.667 375.926,247.217 375.523,246.667 375.280 C 246.117 375.036,245.667 374.724,245.667 374.585 C 245.667 374.447,245.067 374.333,244.333 374.333 C 243.600 374.333,243.000 374.483,243.000 374.667 C 243.000 374.850,242.822 375.000,242.605 375.000 C 242.387 375.000,241.862 375.326,241.438 375.725 L 240.667 376.450 240.667 375.594 C 240.667 374.766,239.859 374.086,239.522 374.631 C 239.382 374.858,238.881 374.867,236.583 374.686 C 236.446 374.676,236.333 374.217,236.333 373.667 C 236.333 372.746,236.241 372.667,235.167 372.667 C 234.101 372.667,234.000 372.751,234.000 373.634 M146.697 379.025 C 145.589 383.835,145.566 383.766,148.252 383.615 C 151.728 383.418,153.000 382.178,153.000 378.984 C 153.000 376.607,152.294 376.000,149.530 376.000 L 147.393 376.000 146.697 379.025 M166.000 376.667 C 166.000 377.185,166.222 377.333,167.000 377.333 C 167.778 377.333,168.000 377.185,168.000 376.667 C 168.000 376.148,167.778 376.000,167.000 376.000 C 166.222 376.000,166.000 376.148,166.000 376.667 M190.172 376.976 C 189.977 377.865,189.860 377.935,188.858 377.773 C 187.461 377.546,186.565 378.027,185.925 379.348 L 185.420 380.391 185.188 379.466 C 184.390 376.286,179.667 377.684,179.667 381.100 C 179.667 383.331,182.585 384.512,184.380 383.007 C 185.290 382.243,184.723 381.497,183.500 381.850 C 182.302 382.196,181.907 382.173,181.758 381.750 C 181.364 380.634,185.137 381.284,185.667 382.424 C 186.366 383.928,190.678 384.129,190.885 382.667 C 191.022 381.702,191.944 377.444,192.203 376.583 C 192.343 376.119,192.175 376.000,191.382 376.000 C 190.552 376.000,190.351 376.163,190.172 376.976 M195.057 379.449 C 194.659 381.347,194.333 383.055,194.333 383.245 C 194.333 384.027,198.690 383.674,199.540 382.824 C 201.262 381.102,200.269 377.346,198.197 377.743 C 197.442 377.887,197.386 377.818,197.560 376.950 C 197.735 376.077,197.670 376.000,196.765 376.000 C 195.785 376.000,195.778 376.014,195.057 379.449 M214.785 377.484 C 216.417 378.997,215.674 381.133,213.517 381.133 C 211.568 381.133,210.845 378.625,212.417 377.315 C 213.407 376.488,213.735 376.512,214.785 377.484 M230.030 377.290 C 231.609 378.569,230.924 381.111,229.000 381.111 C 227.675 381.111,227.200 380.602,227.200 379.183 C 227.200 377.102,228.622 376.151,230.030 377.290 M245.321 377.250 C 245.924 377.810,245.881 377.829,244.238 377.713 C 242.684 377.604,242.585 377.550,243.161 377.130 C 244.002 376.515,244.565 376.546,245.321 377.250 M253.158 377.134 C 254.042 377.593,254.024 377.604,252.197 377.717 C 250.374 377.831,250.351 377.821,251.084 377.257 C 251.998 376.555,252.037 376.552,253.158 377.134 M150.810 377.857 C 152.117 379.164,150.665 382.000,148.689 382.000 C 147.907 382.000,147.892 381.935,148.303 380.333 C 148.467 379.692,148.694 378.754,148.807 378.250 C 149.042 377.204,149.973 377.021,150.810 377.857 M237.000 379.167 C 237.000 380.175,236.850 381.000,236.667 381.000 C 236.483 381.000,236.333 380.175,236.333 379.167 C 236.333 378.158,236.483 377.333,236.667 377.333 C 236.850 377.333,237.000 378.158,237.000 379.167 M154.985 378.094 C 153.291 379.429,152.897 381.355,154.024 382.788 C 154.891 383.890,156.825 383.996,158.079 383.010 C 158.910 382.356,158.917 382.356,159.509 383.010 C 159.917 383.461,160.533 383.667,161.477 383.667 C 164.625 383.667,165.506 381.008,162.700 379.975 C 161.753 379.627,161.379 379.345,161.645 379.180 C 161.872 379.040,162.225 379.092,162.429 379.296 C 162.959 379.825,164.667 379.766,164.667 379.218 C 164.667 378.438,163.489 377.667,162.298 377.667 C 159.324 377.667,158.623 380.366,161.333 381.379 C 162.494 381.813,162.701 381.992,162.247 382.173 C 161.917 382.305,161.336 382.196,160.914 381.924 C 160.408 381.597,159.861 381.525,159.222 381.699 C 158.702 381.841,158.063 381.875,157.801 381.775 C 157.539 381.674,157.104 381.776,156.833 382.000 C 156.301 382.442,155.333 382.234,155.333 381.677 C 155.333 381.482,156.134 381.333,157.180 381.333 L 159.027 381.333 158.947 379.972 C 158.827 377.951,156.541 376.867,154.985 378.094 M165.543 378.750 C 165.434 379.346,165.259 380.433,165.153 381.167 C 165.048 381.900,164.885 382.762,164.791 383.083 C 164.656 383.548,164.827 383.667,165.629 383.667 C 166.536 383.667,166.656 383.541,166.836 382.417 C 166.945 381.729,167.177 380.538,167.351 379.769 C 167.803 377.769,167.771 377.667,166.704 377.667 C 165.880 377.667,165.712 377.823,165.543 378.750 M168.516 378.417 C 166.470 380.213,167.338 384.016,169.687 383.546 C 170.454 383.393,170.599 383.456,170.437 383.877 C 170.240 384.391,169.772 384.378,167.750 383.802 C 167.159 383.634,167.000 383.724,167.000 384.228 C 167.000 385.274,167.698 385.667,169.559 385.667 C 171.746 385.667,172.040 385.286,172.984 381.237 C 173.844 377.545,173.855 377.667,172.667 377.667 C 172.111 377.667,171.667 377.844,171.667 378.067 C 171.667 378.378,171.578 378.378,171.267 378.067 C 170.643 377.443,169.453 377.594,168.516 378.417 M173.885 380.283 C 173.157 383.670,173.163 383.731,174.231 383.605 C 174.946 383.521,175.185 383.264,175.411 382.333 C 176.248 378.879,177.536 377.802,177.179 380.853 C 177.060 381.874,176.880 382.925,176.779 383.188 C 176.644 383.539,176.865 383.667,177.605 383.667 C 178.698 383.667,178.734 383.590,179.192 380.247 C 179.489 378.085,179.131 377.744,176.542 377.729 L 174.436 377.717 173.885 380.283 M201.140 379.060 C 201.234 379.852,201.408 381.286,201.527 382.246 C 201.714 383.759,201.660 384.022,201.121 384.222 C 200.490 384.455,200.014 384.964,200.005 385.417 C 200.002 385.554,200.589 385.667,201.309 385.667 C 202.576 385.667,204.667 383.210,204.667 381.721 C 204.667 381.521,205.123 380.639,205.680 379.762 C 206.517 378.446,206.601 378.147,206.164 378.056 C 205.440 377.904,204.753 378.537,203.893 380.144 L 203.168 381.500 203.001 379.667 C 202.844 377.955,202.772 377.826,201.901 377.726 C 200.986 377.621,200.972 377.646,201.140 379.060 M156.693 379.944 C 155.759 380.081,155.359 379.730,155.998 379.334 C 156.298 379.149,156.659 379.187,156.960 379.436 C 157.368 379.771,157.326 379.851,156.693 379.944 M170.990 379.648 C 171.447 380.502,170.783 382.000,169.946 382.000 C 169.160 382.000,169.098 380.283,169.857 379.524 C 170.521 378.860,170.571 378.865,170.990 379.648 M183.333 379.686 C 183.333 379.859,182.921 379.995,182.417 379.989 C 181.548 379.979,181.533 379.954,182.132 379.500 C 182.769 379.018,183.333 379.105,183.333 379.686 M189.214 380.604 C 188.989 381.996,188.569 382.495,187.856 382.221 C 187.190 381.966,187.183 380.696,187.842 379.755 C 188.629 378.632,189.452 379.141,189.214 380.604 M198.495 380.640 C 198.162 381.964,197.674 382.421,197.101 381.946 C 196.596 381.526,196.755 380.196,197.404 379.414 C 197.978 378.723,198.756 379.598,198.495 380.640 M246.000 380.322 C 246.000 381.370,242.934 381.510,242.538 380.480 C 242.392 380.098,242.728 380.000,244.177 380.000 C 245.180 380.000,246.000 380.145,246.000 380.322 M254.000 380.342 C 254.000 381.335,250.911 381.450,250.535 380.470 C 250.393 380.101,250.746 380.000,252.177 380.000 C 253.200 380.000,254.000 380.150,254.000 380.342 M230.500 383.333 C 230.387 383.517,229.665 383.644,228.897 383.617 L 227.500 383.567 229.000 383.333 C 229.825 383.205,230.546 383.078,230.603 383.050 C 230.660 383.023,230.613 383.150,230.500 383.333 " stroke="none" fill="#131312" fill-rule="evenodd"></path><path id="path4" d="M347.442 216.917 C 345.164 217.179,341.000 226.543,341.000 231.402 C 341.000 233.017,340.396 232.413,340.015 230.417 C 337.854 219.084,333.893 214.085,330.772 218.754 C 327.925 223.015,325.524 233.482,326.688 236.562 C 328.604 241.632,337.295 241.995,339.779 237.108 L 340.556 235.580 341.224 236.873 C 343.728 241.722,351.997 241.830,354.206 237.044 C 354.928 235.478,355.183 235.356,355.457 236.446 C 356.425 240.304,362.742 241.878,366.700 239.248 C 369.572 237.339,369.901 234.249,368.004 227.000 C 364.413 213.275,359.764 213.533,356.143 227.659 C 355.698 229.396,355.333 231.159,355.333 231.576 C 355.333 231.992,355.183 232.333,355.000 232.333 C 354.817 232.333,354.667 232.053,354.667 231.709 C 354.667 226.350,349.920 216.632,347.442 216.917 M391.177 221.793 C 388.914 224.055,385.667 233.934,385.667 238.553 C 385.667 245.583,397.688 247.069,399.719 240.291 C 400.476 237.764,398.872 229.874,396.591 224.897 C 394.922 221.257,392.882 220.088,391.177 221.793 M198.583 229.235 C 198.996 229.315,199.671 229.315,200.083 229.235 C 200.496 229.156,200.158 229.091,199.333 229.091 C 198.508 229.091,198.171 229.156,198.583 229.235 M214.250 229.235 C 214.662 229.315,215.338 229.315,215.750 229.235 C 216.162 229.156,215.825 229.091,215.000 229.091 C 214.175 229.091,213.838 229.156,214.250 229.235 M159.833 236.000 C 159.413 236.181,159.352 236.286,159.667 236.286 C 159.942 236.286,160.467 236.158,160.833 236.000 C 161.254 235.819,161.315 235.714,161.000 235.714 C 160.725 235.714,160.200 235.842,159.833 236.000 M143.274 240.943 C 142.416 241.249,141.604 241.612,141.470 241.748 C 141.135 242.088,144.421 240.983,144.817 240.622 C 145.217 240.257,145.158 240.269,143.274 240.943 " stroke="none" fill="#449b23" fill-rule="evenodd"></path></g></svg>