<svg width="474" height="214" viewBox="0 0 474 214" fill="none" xmlns="http://www.w3.org/2000/svg">
<path d="M70.13 86.1196C70.0661 85.2499 69.9352 84.3923 69.9352 83.5116C69.9352 54.6851 104.725 31.317 147.64 31.317C156.17 31.317 164.355 32.2747 172.035 33.9802C194.678 13.4029 230.948 0.000518799 271.968 0.000518799C340.632 0.000518799 396.296 37.3906 396.296 83.5123C396.296 83.951 396.207 84.375 396.197 84.813C440.579 90.834 474 117.17 474 148.756C474 184.79 430.514 214 376.869 214H97.1309C43.4863 214 0 184.789 0 148.756C0.000946045 119.023 29.6383 93.984 70.13 86.1196Z" fill="#FAF5EF"/>
<path d="M172.034 33.9797C194.677 13.4024 230.947 0 271.967 0C340.631 0 396.295 37.3901 396.295 83.5117C396.295 83.9505 396.206 84.3745 396.196 84.8125C440.579 90.8335 474 117.169 474 148.756C474 184.789 430.514 213.999 376.869 213.999" fill="#FAF5EF"/>
<path d="M337.056 66.8516H351.967C351.967 44.241 324.581 25.8465 290.921 25.8465V35.8622C316.361 35.8628 337.056 49.7643 337.056 66.8516Z" fill="#F5E9DB"/>
</svg>
