<svg width="389" height="167" viewBox="0 0 389 167" fill="none" xmlns="http://www.w3.org/2000/svg">
<path d="M49.0315 64.4856C53.1418 28.3856 94.8879 0 145.875 0C182.379 0 214.145 14.5642 230.779 36.0742C234.765 35.4776 238.893 35.1579 243.125 35.1579C268.779 35.1579 290.612 46.6853 299.532 62.9381C304.851 62.0454 310.367 61.5263 316.062 61.5263C356.345 61.5263 389 85.137 389 114.263C389 143.389 356.345 167 316.062 167H72.9375C32.6547 167 0 143.389 0 114.263C0 91.2018 20.5076 71.6463 49.0315 64.4856ZM97.25 79.1053C103.963 79.1053 109.406 75.1698 109.406 70.3158C109.406 55.7753 125.765 43.9474 145.875 43.9474C152.588 43.9474 158.031 40.0119 158.031 35.1579C158.031 30.3039 152.588 26.3684 145.875 26.3684C112.362 26.3684 85.0938 46.0849 85.0938 70.3158C85.0938 75.1698 90.5367 79.1053 97.25 79.1053Z" fill="#FAF5EF"/>
</svg>
