<svg width="431" height="234" viewBox="0 0 431 234" fill="none" xmlns="http://www.w3.org/2000/svg">
<path d="M366.662 94.1682C366.72 93.2171 366.838 92.2794 366.838 91.3164C366.838 59.7958 335.254 34.2438 296.293 34.2438C288.549 34.2438 281.117 35.291 274.146 37.1559C253.588 14.6555 220.659 0.000549316 183.419 0.000549316C121.081 0.000549316 70.5455 40.885 70.5455 91.3171C70.5455 91.7968 70.6261 92.2604 70.6348 92.7395C30.3417 99.3231 0 128.12 0 162.659C0 202.06 39.48 234 88.1823 234H342.148C390.851 234 430.331 202.059 430.331 162.659C430.33 130.147 403.423 102.768 366.662 94.1682Z" fill="#FAF5EF"/>
<path d="M274.146 37.1553C253.589 14.6549 220.66 0 183.42 0C121.081 0 70.5464 40.8845 70.5464 91.3166C70.5464 91.7963 70.627 92.2599 70.6357 92.7389C30.3417 99.3226 0 128.12 0 162.658C0 202.059 39.48 233.999 88.1823 233.999" fill="#FAF5EF"/>
<path d="M124.327 73.0994H110.79C110.79 48.3757 135.653 28.262 166.212 28.262V39.2138C143.116 39.2145 124.327 54.4151 124.327 73.0994Z" fill="#F5E9DB"/>
</svg>
