<svg width="337" height="219" viewBox="0 0 337 219" fill="none" xmlns="http://www.w3.org/2000/svg">
<path d="M294.523 84.565C290.962 37.2242 254.796 0 210.625 0C179 0 151.481 19.0991 137.071 47.3069C133.618 46.5245 130.041 46.1053 126.375 46.1053C104.15 46.1053 85.236 61.222 77.5087 82.5356C72.8999 81.365 68.1214 80.6842 63.1875 80.6842C28.2896 80.6842 0 111.647 0 149.842C0 188.037 28.2896 219 63.1875 219H273.812C308.71 219 337 188.037 337 149.842C337 119.6 319.234 93.9553 294.523 84.565ZM252.75 103.737C246.934 103.737 242.219 98.5759 242.219 92.2105C242.219 73.1424 228.047 57.6316 210.625 57.6316C204.809 57.6316 200.094 52.4707 200.094 46.1053C200.094 39.7399 204.809 34.5789 210.625 34.5789C239.658 34.5789 263.281 60.4346 263.281 92.2105C263.281 98.5759 258.566 103.737 252.75 103.737Z" fill="#FAF5EF"/>
</svg>
