<svg width="675" height="675" viewBox="0 0 675 675" fill="none" xmlns="http://www.w3.org/2000/svg">
<path d="M337.491 0C523.89 0 674.981 151.111 674.981 337.49C674.981 523.889 523.892 675 337.491 675C151.111 675 0.000366211 523.889 0.000366211 337.49C0.000366211 151.111 151.111 0 337.491 0Z" fill="#CE6D3A"/>
<path d="M280.328 279.778C260.543 293.594 235.166 299.225 210.004 292.519C164.823 280.455 138.012 234.175 150.12 189.164C152.714 179.565 157.122 171.023 162.48 163.302C146.724 174.27 134.406 190.301 129.048 210.255C116.941 255.266 143.749 301.546 188.932 313.61C224.495 323.083 260.565 308.339 280.328 279.778ZM548.422 253.138C490.163 253.138 442.957 205.911 442.957 147.673C442.957 123.943 451.078 102.281 464.326 84.646C438.677 103.883 421.866 134.257 421.866 168.764C421.866 227.024 469.072 274.229 527.331 274.229C561.86 274.229 592.193 257.419 611.43 231.789C593.834 245.017 572.15 253.138 548.422 253.138ZM242.127 504.948C219.643 498.915 206.29 475.797 212.301 453.269L214.663 447.026C203.547 452.047 194.604 461.643 191.208 474.363C185.196 496.89 198.547 520.008 221.034 526.042C241.325 531.484 262.018 521.086 270.329 502.48C261.765 506.361 251.938 507.585 242.127 504.948ZM447.576 482.905C413.806 473.835 393.768 439.159 402.836 405.367C404.461 399.25 407.182 393.788 410.345 388.661C396.74 396.825 386.151 409.964 381.743 426.461C372.672 460.252 392.732 494.928 426.482 503.998C454.115 511.403 482.148 499.127 496.427 475.965C482.252 484.467 464.829 487.504 447.576 482.905Z" fill="#D27B4B"/>
<path d="M379.677 632.813C193.298 632.813 42.1869 481.703 42.1869 295.304C42.1869 212.851 71.8445 137.379 120.949 78.7625C47.0607 140.669 0 233.542 0 337.49C0 523.889 151.111 675 337.49 675C441.437 675 534.288 627.963 596.218 554.073C537.6 603.177 462.152 632.813 379.677 632.813Z" fill="#CA6636"/>
<path d="M632.328 173.448C608.176 130.164 574.722 92.9137 534.753 64.0371L527.329 63.2778C469.069 63.2778 421.864 110.505 421.864 168.743C421.864 227.002 469.069 274.207 527.329 274.207C583.985 274.232 629.819 229.473 632.328 173.448Z" fill="#D27B4B"/>
<path d="M442.851 506.149C477.811 506.149 506.151 477.808 506.151 442.849C506.151 407.89 477.811 379.549 442.851 379.549C407.892 379.549 379.552 407.89 379.552 442.849C379.552 477.808 407.892 506.149 442.851 506.149Z" fill="#D27B4B"/>
<path d="M232.785 150.583C187.582 138.519 141.156 165.221 129.048 210.255C116.941 255.267 143.749 301.546 188.932 313.61C234.135 325.655 280.581 298.95 292.688 253.938C304.796 208.927 277.965 162.649 232.785 150.583Z" fill="#D27B4B"/>
<path d="M231.963 527.476C255.262 527.476 274.15 508.588 274.15 485.289C274.15 461.99 255.262 443.102 231.963 443.102C208.664 443.102 189.776 461.99 189.776 485.289C189.776 508.588 208.664 527.476 231.963 527.476Z" fill="#D27B4B"/>
</svg>
