<svg width="271" height="271" viewBox="0 0 271 271" fill="none" xmlns="http://www.w3.org/2000/svg">
<path d="M147.097 58.8954L135.5 0L123.903 58.8954H135.5H147.097Z" fill="#EE744D"/>
<path d="M97.197 69.1584L107.24 63.36L67.7493 18.1533L87.1539 74.9568L97.197 69.1584Z" fill="#FFC80A"/>
<path d="M69.1584 97.1984L74.9553 87.1539L18.1533 67.7493L63.3585 107.241L69.1584 97.1984Z" fill="#EE744D"/>
<path d="M58.894 135.499L58.8954 123.905L0 135.499L58.894 147.097V135.499Z" fill="#FFC80A"/>
<path d="M69.1569 173.803L63.36 163.758L18.1533 203.249L74.9539 183.846L69.1569 173.803Z" fill="#EE744D"/>
<path d="M87.1554 196.045L67.7493 252.847L107.24 207.641L97.1955 201.843L87.1554 196.045Z" fill="#FFC80A"/>
<path d="M123.903 212.103L135.5 271L147.097 212.106H135.5L123.903 212.103Z" fill="#EE744D"/>
<path d="M173.803 201.843L163.76 207.639L203.249 252.847L183.846 196.045L173.803 201.843Z" fill="#FFC80A"/>
<path d="M201.843 173.803L196.043 183.843L252.845 203.249L207.639 163.758L201.843 173.803Z" fill="#EE744D"/>
<path d="M271 135.499L212.105 123.903L212.106 135.499L212.105 147.095L271 135.499Z" fill="#FFC80A"/>
<path d="M201.842 97.1955L207.639 107.239L252.845 67.7493L196.042 87.1539L201.842 97.1955Z" fill="#EE744D"/>
<path d="M183.845 74.9568L203.249 18.1533L163.757 63.36L173.802 69.1584L183.845 74.9568Z" fill="#FFC80A"/>
<path d="M135.5 65.4852V205.516C174.169 205.516 205.516 174.169 205.516 135.5C205.516 96.831 174.169 65.4852 135.5 65.4852Z" fill="#FDD633"/>
<path d="M66 135.015C66 173.684 97.3472 205.031 136.015 205.031V65C97.3472 65 66 96.3472 66 135.015Z" fill="#F4CA19"/>
</svg>
